<svg width="1030" height="559" viewBox="0 0 1030 559" fill="none" xmlns="http://www.w3.org/2000/svg">
<g id="undraw_virtual_reality_y5ig 1">
<path id="Vector" d="M711.199 444.52C711.199 444.52 713.182 474.122 709.216 479.055C709.216 479.055 796.477 494.843 807.385 489.909C818.292 484.976 813.334 477.082 807.385 474.122C801.435 471.162 771.687 460.308 767.72 439.586C767.72 439.586 780.611 433.666 738.964 441.56C697.317 449.454 711.199 444.52 711.199 444.52Z" fill="#DC9BA3"/>
<path id="Vector_2" opacity="0.05" d="M711.199 444.52C711.199 444.52 713.182 474.122 709.216 479.055C709.216 479.055 796.477 494.843 807.385 489.909C818.292 484.976 813.334 477.082 807.385 474.122C801.435 471.162 771.687 460.308 767.72 439.586C767.72 439.586 780.611 433.666 738.964 441.56C697.317 449.454 711.199 444.52 711.199 444.52Z" fill="black"/>
<path id="Vector_3" d="M370.89 32.3054L370.513 32.483C352.513 40.9315 336.855 53.6227 324.899 69.4556C318.137 78.3362 309.827 86.8023 301.924 88.2034C284.372 91.282 155.315 224.845 186.293 349.153C217.271 473.461 397.991 478.592 397.991 478.592C397.991 478.592 436.425 485.074 458.479 498.04C463.628 501.07 469.384 502.936 475.339 503.505C481.294 504.075 487.302 503.334 492.937 501.336C519.194 492.041 562.349 478.562 581.804 482.706C610.71 488.873 858.462 386.135 858.462 386.135C858.462 386.135 755.216 287.463 603.451 289.565C603.451 289.565 363.929 123.134 372.189 54.2995L370.89 32.3054Z" fill="#6C63FF"/>
<path id="Vector_4" opacity="0.1" d="M370.89 32.3054L370.513 32.483C352.513 40.9315 336.855 53.6227 324.899 69.4556C318.137 78.3362 309.827 86.8023 301.924 88.2034C284.372 91.282 155.315 224.845 186.293 349.153C217.271 473.461 397.991 478.592 397.991 478.592C397.991 478.592 436.425 485.074 458.479 498.04C463.628 501.07 469.384 502.936 475.339 503.505C481.294 504.075 487.302 503.334 492.937 501.336C519.194 492.041 562.349 478.562 581.804 482.706C610.71 488.873 858.462 386.135 858.462 386.135C858.462 386.135 755.216 287.463 603.451 289.565C603.451 289.565 363.929 123.134 372.189 54.2995L370.89 32.3054Z" fill="black"/>
<path id="Vector_5" opacity="0.1" d="M536.958 410.785C567.496 380.397 547.185 310.918 491.592 255.598C435.999 200.279 366.176 180.068 335.637 210.456C305.099 240.844 325.41 310.323 381.003 365.643C436.596 420.962 506.419 441.173 536.958 410.785Z" fill="black"/>
<path id="Vector_6" d="M371.078 157.383C371.078 157.383 381.986 175.144 375.045 209.679C368.104 244.215 392.894 244.215 392.894 244.215H442.474L459.331 200.799L435.533 202.772C435.533 202.772 419.667 198.825 426.608 162.316L371.078 157.383Z" fill="#FFD2D9"/>
<path id="Vector_7" d="M519.819 115.94C512.233 139.967 502.724 169.223 497.647 184.833L494.037 195.865L461.314 162.316C461.314 162.316 462.752 158.991 464.904 154.334C469.694 144.013 478.033 127.169 482.138 125.808C482.138 125.808 436.524 122.847 422.642 133.701C408.759 144.555 412.726 104.1 412.726 104.1C412.726 104.1 439.499 102.126 449.415 96.2058C459.331 90.2854 512.878 84.3651 512.878 84.3651C512.878 84.3651 530.727 81.4049 519.819 115.94Z" fill="#FFD2D9"/>
<path id="Vector_8" opacity="0.1" d="M340.339 413.932C340.339 413.932 424.625 375.449 454.373 381.37Z" fill="black"/>
<path id="Vector_9" opacity="0.1" d="M254.069 323.153C254.069 323.153 356.204 319.206 411.734 354.728Z" fill="black"/>
<path id="Vector_10" opacity="0.1" d="M304.641 363.609C304.641 363.609 384.961 343.874 427.6 350.781Z" fill="black"/>
<path id="Vector_11" d="M817.301 406.038L810.359 456.361L792.511 454.387C792.511 454.387 791.43 453.401 789.595 451.743C784.786 447.53 774.781 439.271 765.202 434.771C761.962 433.125 758.446 432.082 754.83 431.693L774.662 402.091C779.487 403.889 784.435 405.347 789.466 406.452C794.694 407.671 800.042 408.3 805.411 408.327C809.492 408.402 813.543 407.622 817.301 406.038Z" fill="#FFD2D9"/>
<path id="Vector_12" d="M767.72 441.56C758.796 449.454 718.14 432.679 711.199 458.334L704.813 434.002L685.15 359.119L682.442 348.808L666.061 348.107L478.073 340.124L467.403 339.69L461.79 339.453L469.237 335.783L518.818 311.332C518.818 311.332 536.667 310.088 561.308 306.724C598.652 301.632 651.544 291.676 681.411 273.846C730.991 244.244 749.832 343.904 749.832 343.904C749.832 343.904 757.368 369.193 763.119 394.108C765.856 405.949 768.187 417.79 769.069 426.729C769.912 434.317 769.654 439.853 767.72 441.56Z" fill="#E9E9EF"/>
<path id="Vector_13" opacity="0.1" d="M789.466 406.452L772.113 426.7L765.172 434.771C761.932 433.125 758.417 432.082 754.8 431.693L774.632 402.091C779.467 403.891 784.424 405.348 789.466 406.452V406.452Z" fill="black"/>
<path id="Vector_14" d="M788.544 404.064L769.138 426.7L759.788 437.613V440.573C748.344 443.198 712.676 435.718 704.813 434.002C703.821 433.794 703.266 433.666 703.266 433.666C680.459 434.653 596.173 385.316 596.173 385.316C596.173 385.316 503.953 401.104 459.331 397.157C434.412 394.947 427.431 385.978 426.122 378.478C425.547 374.772 426.06 370.979 427.6 367.555L467.403 339.69L472.688 335.99L481.127 330.07C481.127 330.07 495.793 326.764 514.425 322.669C543.528 316.285 582.32 307.987 590.174 307.385C603.064 306.398 635.787 317.252 654.628 338.96C657.871 342.368 661.536 345.352 665.536 347.841L666.051 348.176C671.346 351.669 677.871 355.389 685.14 359.188C709.146 371.769 741.145 385.277 763.149 394.148C778.182 400.157 788.544 404.064 788.544 404.064Z" fill="#E9E9EF"/>
<path id="Vector_15" opacity="0.1" d="M817.301 406.038L810.359 456.361L792.511 454.387C792.511 454.387 791.43 453.401 789.595 451.743C793.562 451.832 800.067 450.697 801.435 442.547C801.435 442.547 794.563 418.618 805.401 408.327C809.485 408.403 813.54 407.623 817.301 406.038V406.038Z" fill="black"/>
<path id="Vector_16" d="M803.418 442.547C803.418 442.547 793.502 408.011 816.309 404.064L853.99 418.865L897.621 421.825C897.621 421.825 909.014 440.336 890.749 461.058C885.744 466.676 879.652 471.233 872.837 474.454C866.022 477.675 858.623 479.495 851.085 479.805L803.408 482.025L788.534 451.437C788.534 451.437 801.435 454.387 803.418 442.547Z" fill="#DC9BA3"/>
<path id="Vector_17" opacity="0.1" d="M561.318 306.704C556.36 308.155 535.655 314.302 514.474 322.65C504.009 326.659 493.814 331.336 483.953 336.651C481.9 337.796 479.986 338.95 478.102 340.115C472.549 343.617 468.077 347.209 465.311 350.771C453.074 366.559 435.096 375.005 426.152 378.469C425.576 374.762 426.09 370.969 427.63 367.546L467.403 339.69L461.79 339.453L469.237 335.783L464.765 335.507L518.808 311.332C518.808 311.332 536.686 310.089 561.318 306.704Z" fill="black"/>
<path id="Vector_18" opacity="0.1" d="M497.647 184.834L494.037 195.865L461.314 162.316C461.314 162.316 462.752 158.991 464.904 154.334C469.039 163.066 488.792 178.292 497.647 184.834Z" fill="black"/>
<path id="Vector_19" d="M379.586 201.223C378.416 197.878 377.56 194.433 377.028 190.931L334.389 205.732C334.389 205.732 305.137 227.934 308.111 276.283C308.111 276.283 344.305 262.962 360.171 278.75L360.498 281.533C363.853 309.118 376.12 334.874 395.452 354.925C403.385 363.165 410.772 372.459 414.709 381.37C414.709 381.37 442.474 373.476 459.331 351.768C476.189 330.06 556.509 307.365 556.509 307.365C556.509 307.365 513.87 308.352 507.92 293.551C501.97 278.75 482.138 247.175 489.079 222.507C496.021 197.839 499.987 189.945 499.987 189.945C499.987 189.945 459.331 161.33 462.306 152.449L436.524 182.051L424.625 185.998C425.56 188.288 426.035 190.739 426.023 193.211C426.658 220.04 388.62 226.493 379.586 201.223Z" fill="#CEDAD5"/>
<path id="Vector_20" d="M142.603 324.889C142.603 324.889 150.912 335.743 138.765 352.024C126.618 368.305 116.603 382.129 120.659 392.312C120.659 392.312 138.983 361.99 153.897 361.566C168.811 361.142 159.014 343.154 142.603 324.889Z" fill="#6C63FF"/>
<path id="Vector_21" d="M158.022 338.704C158.022 342.512 157.596 345.611 157.031 345.611C156.465 345.611 156.039 342.522 156.039 338.704C156.039 334.885 156.574 336.73 157.1 336.73C157.626 336.73 158.022 334.895 158.022 338.704Z" fill="#FFD037"/>
<path id="Vector_22" d="M163.347 343.252C159.986 345.078 157.06 346.213 156.812 345.709C156.565 345.206 159.073 343.39 162.435 341.575C165.796 339.759 164.468 341.082 164.725 341.575C164.983 342.068 166.709 341.427 163.347 343.252Z" fill="#FFD037"/>
<path id="Vector_23" d="M98.7044 324.889C98.7044 324.889 90.3947 335.743 102.542 352.024C114.689 368.305 124.704 382.129 120.649 392.312C120.649 392.312 102.324 361.99 87.41 361.566C72.4963 361.142 82.3032 343.154 98.7044 324.889Z" fill="#6C63FF"/>
<path id="Vector_24" d="M83.2552 338.704C83.2552 342.512 83.6816 345.611 84.2468 345.611C84.812 345.611 85.2384 342.522 85.2384 338.704C85.2384 334.885 84.7029 336.73 84.1774 336.73C83.6518 336.73 83.2552 334.895 83.2552 338.704Z" fill="#FFD037"/>
<path id="Vector_25" d="M77.96 343.252C81.3215 345.078 84.2468 346.213 84.4947 345.709C84.7426 345.206 82.2338 343.39 78.8723 341.575C75.5107 339.759 76.8395 341.082 76.5817 341.575C76.3238 342.068 74.5984 341.427 77.96 343.252Z" fill="#FFD037"/>
<path id="Vector_26" d="M85.9028 390.931C85.9028 390.931 109.136 390.221 116.137 385.257C123.138 380.294 151.835 374.403 153.61 382.297C155.385 390.191 188.524 421.875 162.296 422.082C136.068 422.289 101.352 418.017 94.3612 413.784C87.3703 409.551 85.9028 390.931 85.9028 390.931Z" fill="#A8A8A8"/>
<path id="Vector_27" d="M415.205 403.571C415.205 403.571 511.391 364.102 589.727 401.597L570.887 441.067L480.651 443.04L415.205 403.571Z" fill="#6C63FF"/>
<path id="Vector_28" opacity="0.1" d="M425.101 175.282C425.403 171.594 425.906 167.924 426.608 164.29L371.078 159.356C371.078 159.356 374.926 162.662 376.602 174.996C383.117 178.844 390.722 184.024 398.843 184.024C408.32 184.039 417.541 180.969 425.101 175.282Z" fill="black"/>
<path id="Vector_29" d="M399.339 182.544C423.436 182.544 442.97 163.106 442.97 139.128C442.97 115.15 423.436 95.7124 399.339 95.7124C375.243 95.7124 355.709 115.15 355.709 139.128C355.709 163.106 375.243 182.544 399.339 182.544Z" fill="#FFD2D9"/>
<path id="Vector_30" d="M367.112 150.476H373.062V133.701L379.011 115.94C379.011 115.94 408.759 102.126 422.642 105.086L433.55 114.954C433.55 114.954 436.524 91.2721 418.675 82.3916C400.827 73.5111 369.095 77.458 361.162 84.3651C353.23 91.2721 340.339 103.113 350.255 135.675L353.23 143.569C353.23 143.569 365.129 139.622 367.112 150.476Z" fill="#844F6E"/>
<g id="Group" opacity="0.05">
<path id="Vector_31" opacity="0.05" d="M444.18 173.269L447.432 172.194L462.445 154.995C462.15 154.18 462.115 153.294 462.346 152.459L444.18 173.269Z" fill="black"/>
<path id="Vector_32" opacity="0.05" d="M423.306 205.091C431.17 201.637 437.189 194.138 436.921 183.383C436.921 182.801 436.921 182.248 436.822 181.725L436.505 182.081L424.605 186.027C425.54 188.318 426.015 190.768 426.003 193.24C426.16 197.357 425.23 201.443 423.306 205.091V205.091Z" fill="black"/>
<path id="Vector_33" opacity="0.05" d="M538.977 306.556C514.127 315.16 480.472 328.708 470.239 341.901C469.991 342.226 469.733 342.532 469.475 342.887C496.705 324.307 556.509 307.365 556.509 307.365C550.654 307.426 544.801 307.156 538.977 306.556V306.556Z" fill="black"/>
<path id="Vector_34" opacity="0.05" d="M425.617 371.502C421.65 362.622 414.243 353.297 406.36 345.058C387.027 325.007 374.761 299.251 371.406 271.665L371.078 268.883C355.213 253.095 319.019 266.416 319.019 266.416C317.135 235.749 328.211 215.609 336.561 204.973L334.389 205.732C334.389 205.732 305.137 227.934 308.111 276.283C308.111 276.283 344.305 262.962 360.171 278.75L360.498 281.533C363.853 309.118 376.12 334.874 395.452 354.925C403.385 363.164 410.772 372.459 414.709 381.37C414.709 381.37 438.874 374.462 455.801 355.951C446.678 362.768 436.477 368.024 425.617 371.502V371.502Z" fill="black"/>
</g>
<path id="Vector_35" d="M414.709 256.055C414.709 256.055 367.112 324.139 342.322 343.874C317.532 363.608 310.591 334.993 310.591 334.993V271.843L354.221 266.909L354.687 272.899L355.213 279.737L395.869 236.321C395.869 236.321 436.524 199.812 444.457 221.52C452.39 243.228 414.709 256.055 414.709 256.055Z" fill="#FFD2D9"/>
<path id="Vector_36" opacity="0.1" d="M354.687 272.899C348.731 276.347 342.413 279.136 335.847 281.217C326.476 284.088 315.737 281.069 310.561 279.243V271.873L354.191 266.939L354.687 272.899Z" fill="black"/>
<path id="Vector_37" d="M310.095 265.429L307.487 275.997C307.487 275.997 322.986 283.19 335.876 279.243C348.767 275.297 358.683 268.389 360.667 267.403C362.65 266.416 352.734 255.562 352.734 255.562L310.095 265.429Z" fill="#CEDAD5"/>
<path id="Vector_38" opacity="0.1" d="M595.677 385.81C602.289 380.764 609.649 376.769 617.492 373.969C624.945 371.42 631.966 367.76 638.316 363.115" fill="black"/>
<path id="Vector_39" opacity="0.2" d="M897.621 421.825L895.995 421.717C898.355 427.637 901.766 442.231 887.774 458.127C882.77 463.746 876.677 468.302 869.862 471.523C863.047 474.745 855.649 476.565 848.11 476.875L801.931 479.026L803.408 482.055L851.095 479.805C858.633 479.495 866.032 477.675 872.847 474.454C879.662 471.233 885.754 466.676 890.759 461.058C909.014 440.336 897.621 421.825 897.621 421.825Z" fill="white"/>
<path id="Vector_40" opacity="0.05" d="M672.764 472.642H672.616C672.745 474.97 672.973 479.776 673.012 485.055C673.052 480.417 672.903 475.858 672.764 472.642Z" fill="#00FF00"/>
<path id="Vector_41" opacity="0.05" d="M729.246 464.116C729.385 464.715 729.54 465.304 729.712 465.883C730.684 465.33 732.082 464.284 729.246 464.116Z" fill="#00FF00"/>
<path id="Vector_42" opacity="0.2" d="M807.385 486.949C797.221 491.547 720.788 478.158 710.396 476.302C710.188 477.288 709.787 478.224 709.216 479.055C709.216 479.055 796.477 494.843 807.385 489.909C812.997 487.374 814.405 484.048 813.642 481.029C813.067 483.131 811.202 485.222 807.385 486.949Z" fill="white"/>
<path id="Vector_43" opacity="0.05" d="M672.616 472.652C672.566 471.665 672.526 471.162 672.526 471.162C672.526 471.162 667.479 472.957 672.616 472.652Z" fill="#00FF00"/>
<path id="Vector_44" opacity="0.1" d="M437.932 117.42H377.603C375.369 117.42 373.557 119.223 373.557 121.446V146.943C373.557 149.167 375.369 150.969 377.603 150.969H437.932C440.167 150.969 441.978 149.167 441.978 146.943V121.446C441.978 119.223 440.167 117.42 437.932 117.42Z" fill="black"/>
<path id="Vector_45" opacity="0.1" d="M374.113 128.274H350.195C348.859 128.274 347.776 129.352 347.776 130.682V138.694C347.776 140.024 348.859 141.102 350.195 141.102H374.113C375.449 141.102 376.532 140.024 376.532 138.694V130.682C376.532 129.352 375.449 128.274 374.113 128.274Z" fill="black"/>
<path id="Vector_46" d="M437.932 116.434H377.603C375.369 116.434 373.557 118.236 373.557 120.459V145.957C373.557 148.18 375.369 149.982 377.603 149.982H437.932C440.167 149.982 441.978 148.18 441.978 145.957V120.459C441.978 118.236 440.167 116.434 437.932 116.434Z" fill="#7679B4"/>
<path id="Vector_47" d="M437.863 118.407H385.586C383.351 118.407 381.54 120.21 381.54 122.433V143.983C381.54 146.206 383.351 148.009 385.586 148.009H437.863C440.097 148.009 441.909 146.206 441.909 143.983V122.433C441.909 120.21 440.097 118.407 437.863 118.407Z" fill="#565388"/>
<path id="Vector_48" d="M374.113 127.288H350.195C348.859 127.288 347.776 128.366 347.776 129.695V137.707C347.776 139.037 348.859 140.115 350.195 140.115H374.113C375.449 140.115 376.532 139.037 376.532 137.707V129.695C376.532 128.366 375.449 127.288 374.113 127.288Z" fill="#565388"/>
<path id="Vector_49" opacity="0.1" d="M427.064 118.387C437.795 111.931 446.509 102.632 452.231 91.5287C452.896 90.2361 453.53 88.7856 453.164 87.3844C452.459 84.7005 448.939 84.2269 446.401 83.0724C441.671 80.9115 439.678 75.4549 436.574 71.3008C433.921 67.8358 430.354 65.1712 426.27 63.6033C422.185 62.0355 417.744 61.6259 413.44 62.4203C408.918 63.3281 404.734 65.5581 400.172 66.229C390.335 67.6598 379.606 61.7296 370.771 66.229C366.745 68.2913 364.018 72.1494 361.619 75.9976C355.6 85.5787 348.053 95.7321 353.527 106.971C356.67 113.395 361.688 118.723 368.738 120.598C375.789 122.472 383.949 120.913 391.119 120.134C397.019 119.502 403.197 118.16 409.136 118.782C416.087 119.532 420.431 122.354 427.064 118.387Z" fill="black"/>
<path id="Vector_50" d="M427.064 116.414C437.795 109.958 446.509 100.658 452.231 89.5552C452.896 88.2626 453.53 86.8121 453.164 85.411C452.459 82.7271 448.939 82.2535 446.401 81.099C441.671 78.9381 439.678 73.4815 436.574 69.3274C433.921 65.8623 430.354 63.1977 426.27 61.6299C422.185 60.062 417.744 59.6525 413.44 60.4468C408.918 61.3546 404.734 63.5846 400.172 64.2556C390.335 65.6863 379.606 59.7561 370.771 64.2556C366.745 66.3178 364.018 70.1759 361.619 74.0242C355.6 83.6053 348.053 93.7587 353.527 104.997C356.67 111.421 361.688 116.749 368.738 118.624C375.789 120.499 383.949 118.94 391.119 118.16C397.019 117.529 403.197 116.187 409.136 116.809C416.087 117.559 420.431 120.381 427.064 116.414Z" fill="#844F6E"/>
<g id="screen">
<path id="Vector_51" opacity="0.2" d="M1029.99 230.154L598.652 306.872V76.7179L1029.99 0V230.154Z" fill="#6C63FF"/>
</g>
<g id="screen2">
<g id="Group 1">
<g id="Group_2" opacity="0.2">
<path id="Vector_52" opacity="0.1" d="M785.46 225.151C788.165 224.543 790.942 224.314 793.71 224.47C810.022 224.756 826.949 226.345 842.954 221.51C851.452 218.964 859.077 214.761 867.843 212.955C882.717 209.906 897.591 214.356 912.217 210.646C915.192 209.886 918.831 208.821 920.943 209.965C923.393 211.288 921.657 214.721 924.642 215.59C925.586 215.706 926.517 215.918 927.418 216.221C928.509 216.853 927.825 218.195 926.734 219.053C920.1 224.411 906.605 220.849 898.295 225.181C896.451 226.167 895.062 227.411 893.337 228.437C890.606 229.838 887.712 230.899 884.72 231.594L838.581 244.422C827.534 247.491 816.339 250.599 804.916 251.951C793.492 253.302 781.643 252.75 773.273 248.892C771.479 248.063 769.813 247.047 769.129 245.665C765.876 239.153 773.968 228.19 785.46 225.151Z" fill="#252223"/>
<path id="Vector_53" opacity="0.3" d="M744.755 134.254L783.358 164.625L821.961 194.987L758.558 206.916L695.155 218.836L719.955 176.545L744.755 134.254Z" fill="#6C63FF"/>
<path id="Vector_54" opacity="0.3" d="M784.895 127.228L823.498 157.59L862.102 187.961L798.698 199.881L735.295 211.811L760.095 169.52L784.895 127.228Z" fill="#6C63FF"/>
<path id="Vector_55" opacity="0.2" d="M844.6 64.0484L770.1 205.269L911.384 177.907L963.592 168.089L844.6 64.0484Z" fill="#6C63FF"/>
<path id="Vector_56" opacity="0.1" d="M963.592 168.089L911.384 177.907L844.6 64.0484L963.592 168.089Z" fill="black"/>
<path id="Vector_57" opacity="0.2" d="M883.877 129.518C883.626 128.598 883.057 127.797 882.269 127.255C881.481 126.713 880.527 126.466 879.573 126.557C879.573 126.557 880.565 118.802 864.501 121.93C864.225 121.37 863.823 120.881 863.327 120.501C862.831 120.12 862.254 119.858 861.64 119.734C861.026 119.61 860.392 119.628 859.786 119.786C859.18 119.944 858.618 120.239 858.145 120.647L857.461 117.045C857.461 117.045 848.655 122.068 857.986 129.232L859.107 135.152C859.135 135.302 859.182 135.448 859.246 135.586C859.296 135.694 859.336 135.806 859.365 135.922C859.791 137.648 862.924 151.334 855.805 156.011C848.179 161.093 843.816 145.434 843.816 145.434C838.858 124.979 829.418 125.058 827.177 125.383C826.909 125.383 826.632 125.443 826.354 125.462C825.303 125.521 822.041 126.686 820.791 138.477C819.294 152.627 813.85 149.094 813.85 149.094C801.643 142.473 793.026 148.265 793.026 148.265C771.846 160.659 789.853 183.906 793.572 188.317C792.173 195.332 789.347 207.696 786.63 208.209C782.783 208.929 775.584 222.369 795.079 243.267L800.265 242.281C800.265 242.281 784.231 221.441 796.854 211.071C796.58 211.834 796.248 212.576 795.862 213.291C788.792 225.319 812.848 239.814 812.848 239.814L818.62 238.729L805.292 222.023C799.997 215.116 809.874 209.472 809.874 209.472C821.565 199.743 815.546 188.001 815.546 188.001L842.834 182.87C839.463 190.29 834.505 208.525 850.986 232.542L854.833 231.821L851.69 202.693C851.69 202.693 852.681 196.428 859.365 186.975C862.022 198.815 867.654 219.251 876.162 227.805L881.735 226.76C881.735 226.76 874.943 207.37 874.794 200.118C874.725 197.158 874.596 194.247 874.328 191.326L872.94 176.052C875.191 174.632 876.956 172.564 878.001 170.124C879.046 167.684 879.321 164.985 878.79 162.386L873.664 135.882C873.591 135.509 873.596 135.125 873.678 134.754C873.76 134.383 873.917 134.033 874.14 133.724C874.363 133.416 874.647 133.156 874.974 132.96C875.301 132.764 875.665 132.637 876.043 132.586L882.618 131.698C882.855 131.657 883.081 131.564 883.278 131.426C883.475 131.288 883.64 131.109 883.76 130.901C883.88 130.693 883.953 130.461 883.973 130.222C883.993 129.983 883.961 129.743 883.877 129.518V129.518Z" fill="url(#paint0_linear)"/>
<path id="Vector_58" opacity="0.2" d="M857.104 178.222C857.104 178.222 863.272 214.791 875.339 226.908L880.813 225.921C880.813 225.921 874.149 206.887 873.971 199.792C873.902 196.911 873.783 194.03 873.515 191.158L871.274 166.49L857.104 178.222Z" fill="#535461"/>
<path id="Vector_59" opacity="0.05" d="M857.104 178.222C857.104 178.222 863.272 214.791 875.339 226.908L880.813 225.921C880.813 225.921 874.149 206.887 873.971 199.792C873.902 196.911 873.783 194.03 873.515 191.158L871.274 166.49L857.104 178.222Z" fill="black"/>
<path id="Vector_60" opacity="0.2" d="M795.138 183.462C795.138 183.462 791.172 206.956 787.424 207.666C783.675 208.377 776.576 221.569 795.723 242.083L800.82 241.097C800.82 241.097 783.17 218.165 799.958 208.781C799.948 208.811 802.873 189.195 795.138 183.462Z" fill="#535461"/>
<path id="Vector_61" opacity="0.05" d="M795.138 183.462C795.138 183.462 791.172 206.956 787.424 207.666C783.675 208.377 776.576 221.569 795.723 242.083L800.82 241.097C800.82 241.097 783.17 218.165 799.958 208.781C799.948 208.811 802.873 189.195 795.138 183.462Z" fill="black"/>
<path id="Vector_62" opacity="0.2" d="M858.621 135.991L857.52 130.208C848.368 123.183 857.005 118.249 857.005 118.249L858.185 124.446C879.871 118.23 878.711 127.584 878.711 127.584C879.642 127.489 880.577 127.726 881.35 128.251C882.123 128.777 882.685 129.557 882.935 130.455C883.015 130.681 883.044 130.921 883.019 131.159C882.994 131.397 882.916 131.627 882.791 131.831C882.665 132.035 882.496 132.209 882.294 132.34C882.093 132.47 881.864 132.555 881.626 132.586L875.171 133.465C874.799 133.514 874.441 133.639 874.12 133.831C873.798 134.023 873.519 134.278 873.3 134.581C873.081 134.884 872.926 135.228 872.846 135.593C872.765 135.957 872.76 136.334 872.831 136.701L877.858 162.721C878.224 164.583 878.177 166.502 877.722 168.344C877.266 170.186 876.413 171.907 875.22 173.387C873.356 175.667 870.371 177.719 865.612 178.469L815.793 187.843C815.793 187.843 821.743 199.378 810.221 208.919C810.221 208.919 800.523 214.435 805.719 221.244L818.798 237.643L813.136 238.709C813.136 238.709 789.526 224.48 796.467 212.669C798.352 208.916 799.197 204.73 798.917 200.544C798.636 196.357 797.24 192.321 794.871 188.849C794.871 188.849 770.675 162.287 793.71 148.808C793.71 148.808 802.208 143.125 814.187 149.627C814.187 149.627 819.532 153.091 820.999 139.207C822.219 127.633 825.422 126.488 826.453 126.429C826.721 126.429 826.989 126.429 827.256 126.35C829.458 126.035 838.749 125.956 843.598 146.035C843.598 146.035 847.882 161.369 855.349 156.465C862.339 151.877 859.315 138.438 858.849 136.731C858.82 136.619 858.78 136.51 858.73 136.405V136.405C858.677 136.272 858.641 136.132 858.621 135.991V135.991Z" fill="#535461"/>
<path id="Vector_63" opacity="0.2" d="M844.56 179.219C844.56 179.219 829.23 200.384 850.599 231.516L854.377 230.805L851.293 202.19C851.293 202.19 853.117 190.182 869.667 174.424L844.56 179.219Z" fill="#535461"/>
<path id="Vector_64" opacity="0.2" d="M861.054 128.821C863.244 128.409 864.684 126.309 864.27 124.129C863.856 121.95 861.745 120.517 859.555 120.929C857.365 121.341 855.925 123.441 856.339 125.621C856.752 127.8 858.863 129.233 861.054 128.821Z" fill="#535461"/>
<path id="Vector_65" opacity="0.2" d="M843.311 151.166C847.971 144.111 845.195 143.648 843.39 141.793C842.16 140.53 831.828 140.046 825.392 139.868C825.253 139.375 825.035 138.546 824.777 137.54C824.777 137.54 824.262 135.685 824.024 134.382H824.43L824.371 133.997L832.304 133.573C839.076 133.297 839.404 130.613 839.404 130.613C839.562 126.005 831.917 130.425 831.917 130.425C830.4 131.166 826.374 130.613 823.231 130.001C823.143 129.347 823.093 128.688 823.082 128.028C823.121 127.007 823.054 125.986 822.883 124.979C822.772 124.109 822.43 123.285 821.892 122.591C819.566 119.825 816.878 117.382 813.9 115.329C813.724 113.587 813.886 111.829 814.375 110.148C815.578 109.533 816.551 108.551 817.151 107.345C817.751 106.139 817.946 104.773 817.707 103.448C817.592 102.842 817.385 102.256 817.093 101.712C818.511 99.837 817.846 96.6301 815.883 94.8737C815.674 94.6862 815.448 94.5178 815.208 94.3705C813.935 93.5232 812.392 93.1719 810.875 93.3838C809.183 93.6589 807.575 94.3135 806.175 95.298C804.499 96.4032 802.873 97.8043 800.87 98.0214C799.422 98.1792 797.895 97.6859 796.537 98.1299C794.742 98.7022 793.819 100.607 793.244 102.353C792.669 104.1 792.114 106.024 790.557 107.07C789.199 107.977 787.444 107.968 785.847 108.352C784.732 108.586 783.692 109.089 782.819 109.817C781.946 110.544 781.266 111.475 780.839 112.526C780.525 113.473 780.532 114.496 780.858 115.439C781.183 116.382 781.811 117.192 782.644 117.746C782.906 117.938 783.193 118.094 783.497 118.21C783.836 118.314 784.168 118.443 784.489 118.595C784.577 118.659 784.651 118.74 784.707 118.833C784.763 118.926 784.8 119.03 784.816 119.137C784.821 119.407 784.763 119.673 784.647 119.917C784.463 120.461 784.393 121.037 784.442 121.609C784.492 122.181 784.659 122.737 784.935 123.242C785.118 123.611 785.403 123.919 785.758 124.13C785.857 124.213 785.967 124.283 786.085 124.337C787.245 124.841 788.683 123.706 789.833 124.219H789.923C790.369 124.7 790.756 125.233 791.073 125.808C791.345 126.146 791.682 126.428 792.064 126.636C793.074 127.294 794.294 127.554 795.485 127.367C796.999 127.076 798.443 126.5 799.739 125.669C801.495 124.683 803.408 123.311 803.547 121.357C803.626 120.164 803.002 119.009 803.151 117.825C803.231 117.259 803.46 116.725 803.815 116.276C803.617 117.276 803.547 118.297 803.607 119.315C803.642 120.14 803.742 120.962 803.904 121.772C804.28 123.89 805.047 125.92 806.165 127.761C807.668 130.157 808.77 132.78 809.427 135.527C809.662 136.738 809.682 137.98 809.487 139.197C808.852 142.73 808.922 144.249 809.1 144.891C809.209 145.759 809.497 145.769 809.497 145.769H809.566C809.598 146.368 809.751 146.953 810.017 147.491C810.283 148.029 810.656 148.507 811.113 148.897C820.087 152.587 838.343 147.358 838.343 147.358C834.654 148.65 832.016 158.705 832.016 158.705C831.614 160.894 830.697 162.956 829.339 164.724V164.724C827.356 164.428 825.015 166.638 823.25 167.931L823.102 168.03C822.93 168.146 822.785 168.299 822.677 168.476C822.57 168.653 822.501 168.851 822.477 169.057C822.452 169.262 822.473 169.471 822.536 169.668C822.599 169.865 822.704 170.047 822.844 170.2L829.864 177.857C833.91 180.709 836.24 180.896 836.895 180.087C837.321 179.555 837.034 178.607 836.042 177.69C833.642 175.469 833.989 168.266 834.059 167.655C835.16 165.188 839.394 157.097 843.311 151.166Z" fill="url(#paint1_linear)"/>
<path id="Vector_66" opacity="0.2" d="M814.941 109.24C814.941 109.24 812.898 113.908 814.247 117.924L806.641 113.908C806.641 113.908 809.06 113.256 808.555 107.524L814.941 109.24Z" fill="#F9D5C6"/>
<path id="Vector_67" opacity="0.2" d="M820.038 140.174C820.038 140.174 840.217 140.46 841.932 142.276C843.648 144.092 846.275 144.575 841.932 151.423C837.589 158.271 832.79 168.118 832.79 168.118L827.653 165.78C829.515 163.821 830.748 161.355 831.193 158.695C831.193 158.695 833.632 148.897 837.143 147.664C837.143 147.664 819.919 152.656 811.361 149.005C811.361 149.005 809.08 147.298 810.141 143.598C811.202 139.898 820.038 140.174 820.038 140.174Z" fill="#353535"/>
<path id="Vector_68" opacity="0.1" d="M808.832 114.085C808.832 114.085 803.795 112.852 804.162 120.538C804.307 123.324 805.131 126.033 806.562 128.432C808.198 131.215 810.528 136 809.844 139.977C808.852 145.996 809.844 146.006 809.844 146.006L812.422 144.447C815.896 142.336 819.884 141.21 823.954 141.191H825.154C825.154 141.191 822.735 132.547 822.685 128.718C822.685 126.903 822.685 125.216 821.584 123.785C818.144 119.364 811.242 114.075 808.832 114.085Z" fill="black"/>
<path id="Vector_69" opacity="0.2" d="M808.763 113.73C808.763 113.73 803.726 112.497 804.092 120.183C804.238 122.969 805.062 125.678 806.492 128.077C808.128 130.86 810.459 135.645 809.774 139.622C808.783 145.641 809.774 145.651 809.774 145.651L812.353 144.092C815.827 141.981 819.814 140.855 823.885 140.835H825.085C825.085 140.835 822.665 132.192 822.616 128.363C822.616 126.548 822.616 124.86 821.515 123.43C818.074 118.989 811.173 113.73 808.763 113.73Z" fill="#409CD6"/>
<path id="Vector_70" opacity="0.1" d="M806.889 119.887C807.097 119.32 807.444 118.813 807.9 118.414C808.355 118.015 808.904 117.736 809.496 117.603C810.088 117.469 810.704 117.485 811.288 117.65C811.872 117.815 812.405 118.123 812.838 118.545C813.616 119.359 814.235 120.309 814.663 121.348C817.053 126.735 818.867 130.09 818.867 130.09C820.404 130.317 821.919 130.667 823.399 131.136C823.627 132.981 823.925 134.895 823.925 134.895L817.489 135.211L808.674 124.811C808.674 124.811 805.986 122.611 806.889 119.887Z" fill="black"/>
<path id="Vector_71" opacity="0.2" d="M806.81 119.502C807.018 118.935 807.365 118.429 807.821 118.03C808.276 117.63 808.825 117.351 809.417 117.218C810.009 117.084 810.625 117.101 811.209 117.265C811.793 117.43 812.326 117.738 812.759 118.16C813.537 118.974 814.156 119.924 814.584 120.963C816.973 126.35 818.788 129.705 818.788 129.705C818.788 129.705 828.476 132.359 830.975 131.106C830.975 131.106 838.174 126.834 838.055 131.333C838.055 131.333 837.767 133.918 831.362 134.145L817.42 134.826L808.604 124.426C808.604 124.426 805.917 122.186 806.81 119.502Z" fill="#F9D5C6"/>
<path id="Vector_72" opacity="0.1" d="M807.97 110.059C808.158 109.162 808.585 109.507 808.446 107.928L814.832 109.645C814.567 110.287 814.348 110.946 814.177 111.618C813.538 111.837 812.869 111.96 812.194 111.984C810.786 112.26 809.17 110.721 807.97 110.059Z" fill="black"/>
<path id="Vector_73" opacity="0.2" d="M812.504 111.891C815.841 111.264 818.034 108.064 817.404 104.744C816.774 101.424 813.558 99.2411 810.221 99.8684C806.885 100.496 804.691 103.696 805.322 107.016C805.952 110.336 809.168 112.518 812.504 111.891Z" fill="#F9D5C6"/>
<path id="Vector_74" opacity="0.1" d="M813.88 104.415C812.789 104.475 811.599 104.129 810.677 104.702C809.755 105.274 809.487 106.843 809.685 108.066C809.884 109.29 810.399 110.523 810.112 111.737C809.725 113.326 808.128 114.302 806.74 115.141C805.352 115.98 803.765 117.115 803.617 118.713C803.488 119.867 804.083 121.002 804.013 122.167C803.894 124.071 802.099 125.383 800.434 126.35C799.231 127.145 797.883 127.698 796.467 127.978C795.746 128.106 795.004 128.042 794.317 127.792C793.629 127.543 793.019 127.117 792.55 126.557C792.104 125.946 791.836 125.127 791.142 124.811C790.051 124.298 788.693 125.403 787.602 124.91C787.218 124.707 786.912 124.385 786.73 123.992C786.468 123.499 786.307 122.958 786.258 122.403C786.209 121.847 786.271 121.287 786.442 120.756C786.548 120.517 786.599 120.257 786.591 119.996C786.501 119.374 785.738 119.167 785.143 118.94C784.164 118.474 783.388 117.669 782.962 116.676C782.535 115.683 782.485 114.569 782.823 113.543C783.205 112.53 783.836 111.629 784.659 110.922C785.482 110.215 786.47 109.725 787.533 109.497C789.04 109.122 790.706 109.142 791.975 108.273C793.443 107.287 793.958 105.382 794.484 103.685C795.009 101.988 795.872 100.133 797.568 99.5903C798.877 99.166 800.295 99.6495 801.663 99.5113C803.557 99.314 805.084 97.9523 806.621 96.8866C807.933 95.9348 809.451 95.3028 811.054 95.0415C811.856 94.9178 812.675 94.9685 813.456 95.1899C814.236 95.4113 814.959 95.7983 815.575 96.3242C818.312 98.8009 818.481 104.169 813.88 104.415Z" fill="black"/>
<path id="Vector_75" opacity="0.2" d="M813.652 104.267C812.561 104.327 811.371 103.981 810.449 104.554C809.527 105.126 809.259 106.695 809.457 107.918C809.655 109.142 810.171 110.375 809.883 111.589C809.497 113.177 807.9 114.154 806.512 114.993C805.124 115.832 803.537 116.967 803.388 118.565C803.26 119.719 803.854 120.854 803.785 122.019C803.666 123.923 801.871 125.235 800.205 126.202C799.003 126.997 797.655 127.55 796.239 127.83C795.521 127.958 794.783 127.896 794.097 127.65C793.411 127.404 792.803 126.983 792.332 126.429C791.886 125.817 791.618 124.998 790.924 124.683C789.833 124.17 788.475 125.275 787.384 124.781C787 124.579 786.693 124.256 786.511 123.864C786.249 123.37 786.089 122.83 786.04 122.274C785.99 121.719 786.053 121.159 786.224 120.627C786.33 120.388 786.381 120.129 786.373 119.867C786.283 119.246 785.52 119.039 784.925 118.812C783.946 118.345 783.17 117.541 782.743 116.548C782.316 115.555 782.267 114.441 782.604 113.414C782.987 112.402 783.618 111.501 784.441 110.794C785.264 110.087 786.252 109.597 787.315 109.369C788.822 108.994 790.488 109.014 791.757 108.145C793.224 107.158 793.74 105.254 794.266 103.557C794.791 101.86 795.654 100.005 797.35 99.462C798.658 99.0377 800.076 99.5212 801.445 99.3831C803.339 99.1857 804.866 97.824 806.403 96.7584C807.715 95.8066 809.233 95.1746 810.835 94.9132C811.638 94.7896 812.457 94.8402 813.237 95.0616C814.018 95.2831 814.741 95.67 815.357 96.196C818.084 98.6529 818.253 104.011 813.652 104.267Z" fill="#2F302F"/>
<path id="Vector_76" opacity="0.1" d="M815.456 119.739C815.456 119.739 807.524 120.252 808.198 125.768C808.872 131.284 805.441 119.483 805.441 119.483L808.525 116.177L812.928 116.71L815.456 119.739Z" fill="black"/>
<path id="Vector_77" opacity="0.2" d="M815.248 119.581C815.248 119.581 807.315 120.094 807.99 125.61C808.664 131.126 805.233 119.325 805.233 119.325L808.317 116.019L812.72 116.552L815.248 119.581Z" fill="#409CD6"/>
<path id="Vector_78" opacity="0.2" d="M822.566 169.825L829.25 177.334C833.097 180.137 835.298 180.295 835.913 179.555C836.31 179.041 836.032 178.114 835.09 177.216C832.7 174.947 833.107 167.349 833.107 167.349C832.161 167.378 831.228 167.12 830.432 166.609C829.637 166.098 829.017 165.358 828.655 164.487C826.761 164.191 824.579 166.332 822.913 167.576L822.774 167.674C822.608 167.794 822.469 167.948 822.367 168.125C822.265 168.303 822.202 168.5 822.182 168.703C822.163 168.907 822.187 169.112 822.253 169.305C822.319 169.499 822.426 169.676 822.566 169.825V169.825Z" fill="#409CD6"/>
<path id="Vector_79" opacity="0.1" d="M833.117 167.368C833.117 167.368 829.309 167.891 828.664 164.507C829.04 165.368 829.663 166.099 830.456 166.608C831.248 167.117 832.174 167.382 833.117 167.368V167.368Z" fill="black"/>
<path id="Vector_80" opacity="0.1" d="M822.566 169.825L829.25 177.334C833.097 180.137 835.298 180.295 835.913 179.555C833.989 178.962 828.545 176.594 822.933 167.605L822.794 167.704C822.631 167.822 822.495 167.973 822.394 168.147C822.293 168.321 822.23 168.515 822.208 168.714C822.187 168.914 822.207 169.116 822.269 169.308C822.331 169.499 822.432 169.675 822.566 169.825V169.825Z" fill="black"/>
<path id="Vector_81" opacity="0.2" d="M713.152 228.595C713.152 228.595 695.472 244.323 735.761 255.819C735.761 255.819 741.017 239.321 729.742 228.802C727.551 226.749 724.68 225.567 721.672 225.48C718.663 225.393 715.728 226.406 713.42 228.328L713.152 228.595Z" fill="#6C63FF"/>
<path id="Vector_82" opacity="0.2" d="M713.321 228.299C713.321 228.299 732.885 238.058 735.761 255.819" stroke="#535461" stroke-miterlimit="10"/>
<path id="Vector_83" opacity="0.2" d="M734.65 255.986C734.65 255.986 724.387 236.035 728.859 219.093C730.79 211.982 730.345 204.439 727.59 197.602C726.262 194.372 724.639 191.271 722.741 188.336" stroke="#535461" stroke-width="2" stroke-miterlimit="10"/>
<path id="Vector_84" opacity="0.2" d="M725.498 177.69C725.994 180.275 722.702 188.672 722.702 188.672C722.702 188.672 716.564 182.051 716.078 179.466C715.841 178.223 716.11 176.937 716.826 175.891C717.542 174.846 718.646 174.126 719.895 173.891C721.145 173.655 722.437 173.923 723.487 174.636C724.538 175.348 725.261 176.447 725.498 177.69Z" fill="#6C63FF"/>
<path id="Vector_85" opacity="0.2" d="M736.009 190.566C735.017 193.004 727.67 198.273 727.67 198.273C727.67 198.273 726.133 189.392 727.134 186.955C727.372 186.372 727.724 185.841 728.168 185.393C728.613 184.945 729.141 184.589 729.724 184.344C730.307 184.099 730.933 183.971 731.565 183.967C732.198 183.963 732.825 184.083 733.411 184.32C733.997 184.558 734.53 184.907 734.98 185.349C735.431 185.792 735.789 186.318 736.035 186.898C736.281 187.478 736.409 188.1 736.413 188.73C736.417 189.359 736.297 189.983 736.059 190.566H736.009Z" fill="#6C63FF"/>
<path id="Vector_86" opacity="0.2" d="M740.322 215.136C738.22 216.734 729.207 217.603 729.207 217.603C729.207 217.603 732.39 209.166 734.482 207.568C735.49 206.798 736.765 206.459 738.025 206.625C739.285 206.79 740.427 207.447 741.2 208.451C741.973 209.454 742.314 210.723 742.148 211.976C741.981 213.23 741.321 214.366 740.312 215.136H740.322Z" fill="#6C63FF"/>
<path id="Vector_87" opacity="0.2" d="M739.38 234.456C737.586 236.429 728.85 238.748 728.85 238.748C728.85 238.748 730.545 229.868 732.35 227.973C732.778 227.514 733.292 227.143 733.864 226.881C734.436 226.62 735.054 226.473 735.683 226.449C736.312 226.425 736.939 226.525 737.529 226.742C738.12 226.96 738.661 227.291 739.123 227.717C739.584 228.142 739.957 228.654 740.22 229.223C740.483 229.792 740.63 230.407 740.654 231.033C740.678 231.659 740.578 232.283 740.359 232.871C740.141 233.458 739.808 233.997 739.38 234.456V234.456Z" fill="#6C63FF"/>
<path id="Vector_88" opacity="0.2" d="M717.873 200.631C720.084 202.082 729.127 202.318 729.127 202.318C729.127 202.318 725.369 194.128 723.178 192.668C722.652 192.323 722.063 192.084 721.445 191.965C720.827 191.846 720.191 191.849 719.574 191.975C718.957 192.1 718.371 192.346 717.85 192.696C717.328 193.047 716.881 193.497 716.534 194.02C716.187 194.543 715.947 195.129 715.827 195.744C715.708 196.359 715.711 196.992 715.837 197.605C715.963 198.219 716.21 198.803 716.562 199.322C716.915 199.841 717.367 200.286 717.892 200.631H717.873Z" fill="#6C63FF"/>
<path id="Vector_89" opacity="0.2" d="M717.059 223.257C719.608 223.987 728.304 221.51 728.304 221.51C728.304 221.51 722.255 214.81 719.707 214.08C718.485 213.731 717.174 213.879 716.062 214.491C714.95 215.104 714.128 216.131 713.777 217.346C713.426 218.562 713.575 219.866 714.19 220.973C714.806 222.079 715.838 222.897 717.059 223.247V223.257Z" fill="#6C63FF"/>
<path id="Vector_90" opacity="0.2" d="M719.271 245.33C721.65 246.474 730.654 245.507 730.654 245.507C730.654 245.507 725.825 237.89 723.445 236.745C722.3 236.194 720.982 236.119 719.78 236.535C718.579 236.951 717.593 237.826 717.04 238.965C716.486 240.105 716.41 241.417 716.828 242.612C717.247 243.808 718.125 244.789 719.271 245.34V245.33Z" fill="#6C63FF"/>
<path id="Vector_91" opacity="0.25" d="M725.498 177.69C725.994 180.275 722.702 188.672 722.702 188.672C722.702 188.672 716.564 182.051 716.078 179.466C715.841 178.223 716.11 176.937 716.826 175.891C717.542 174.846 718.646 174.126 719.895 173.891C721.145 173.655 722.437 173.923 723.487 174.636C724.538 175.348 725.261 176.447 725.498 177.69Z" fill="black"/>
<path id="Vector_92" opacity="0.25" d="M736.009 190.566C735.017 193.004 727.67 198.273 727.67 198.273C727.67 198.273 726.133 189.392 727.134 186.955C727.372 186.372 727.724 185.841 728.168 185.393C728.613 184.945 729.141 184.589 729.724 184.344C730.307 184.099 730.933 183.971 731.565 183.967C732.198 183.963 732.825 184.083 733.411 184.32C733.997 184.558 734.53 184.907 734.98 185.349C735.431 185.792 735.789 186.318 736.035 186.898C736.281 187.478 736.409 188.1 736.413 188.73C736.417 189.359 736.297 189.983 736.059 190.566H736.009Z" fill="black"/>
<path id="Vector_93" opacity="0.25" d="M740.322 215.136C738.22 216.734 729.207 217.603 729.207 217.603C729.207 217.603 732.39 209.166 734.482 207.568C735.49 206.798 736.765 206.459 738.025 206.625C739.285 206.79 740.427 207.447 741.2 208.451C741.973 209.454 742.314 210.723 742.148 211.976C741.981 213.23 741.321 214.366 740.312 215.136H740.322Z" fill="black"/>
<path id="Vector_94" opacity="0.25" d="M739.38 234.456C737.586 236.429 728.85 238.748 728.85 238.748C728.85 238.748 730.545 229.868 732.35 227.973C732.778 227.514 733.292 227.143 733.864 226.881C734.436 226.62 735.054 226.473 735.683 226.449C736.312 226.425 736.939 226.525 737.529 226.742C738.12 226.96 738.661 227.291 739.123 227.717C739.584 228.142 739.957 228.654 740.22 229.223C740.483 229.792 740.63 230.407 740.654 231.033C740.678 231.659 740.578 232.283 740.359 232.871C740.141 233.458 739.808 233.997 739.38 234.456V234.456Z" fill="black"/>
<path id="Vector_95" opacity="0.25" d="M717.873 200.631C720.084 202.082 729.127 202.318 729.127 202.318C729.127 202.318 725.369 194.128 723.178 192.668C722.652 192.323 722.063 192.084 721.445 191.965C720.827 191.846 720.191 191.849 719.574 191.975C718.957 192.1 718.371 192.346 717.85 192.696C717.328 193.047 716.881 193.497 716.534 194.02C716.187 194.543 715.947 195.129 715.827 195.744C715.708 196.359 715.711 196.992 715.837 197.605C715.963 198.219 716.21 198.803 716.562 199.322C716.915 199.841 717.367 200.286 717.892 200.631H717.873Z" fill="black"/>
<path id="Vector_96" opacity="0.25" d="M717.059 223.257C719.608 223.987 728.304 221.51 728.304 221.51C728.304 221.51 722.255 214.81 719.707 214.08C718.485 213.731 717.174 213.879 716.062 214.491C714.95 215.104 714.128 216.131 713.777 217.346C713.426 218.562 713.575 219.866 714.19 220.973C714.806 222.079 715.838 222.897 717.059 223.247V223.257Z" fill="black"/>
<path id="Vector_97" opacity="0.25" d="M719.271 245.33C721.65 246.474 730.654 245.507 730.654 245.507C730.654 245.507 725.825 237.89 723.445 236.745C722.3 236.194 720.982 236.119 719.78 236.535C718.579 236.951 717.593 237.826 717.04 238.965C716.486 240.105 716.41 241.417 716.828 242.612C717.247 243.808 718.125 244.789 719.271 245.34V245.33Z" fill="black"/>
<path id="Vector_98" opacity="0.2" d="M753.977 259.766C753.977 259.766 743.714 239.814 748.186 222.872C750.109 215.777 749.667 208.254 746.926 201.43C745.598 198.201 743.975 195.099 742.078 192.165" stroke="#535461" stroke-width="2" stroke-miterlimit="10"/>
<path id="Vector_99" opacity="0.2" d="M744.864 181.459C745.36 184.044 742.068 192.441 742.068 192.441C742.068 192.441 735.93 185.82 735.444 183.235C735.207 181.992 735.476 180.706 736.192 179.661C736.908 178.615 738.012 177.896 739.261 177.66C740.511 177.424 741.803 177.692 742.853 178.405C743.904 179.117 744.627 180.216 744.864 181.459Z" fill="#6C63FF"/>
<path id="Vector_100" opacity="0.2" d="M755.375 194.336C754.383 196.773 747.036 202.042 747.036 202.042C747.036 202.042 745.499 193.161 746.5 190.724C746.981 189.547 747.913 188.607 749.09 188.113C750.267 187.619 751.593 187.611 752.777 188.09C753.96 188.569 754.904 189.496 755.401 190.667C755.897 191.838 755.906 193.158 755.425 194.336H755.375Z" fill="#6C63FF"/>
<path id="Vector_101" opacity="0.2" d="M759.688 218.905C757.586 220.504 748.573 221.372 748.573 221.372C748.573 221.372 751.756 212.935 753.848 211.337C754.856 210.568 756.131 210.228 757.391 210.394C758.651 210.56 759.793 211.217 760.566 212.22C761.339 213.224 761.68 214.492 761.514 215.746C761.347 216.999 760.687 218.136 759.679 218.905H759.688Z" fill="#6C63FF"/>
<path id="Vector_102" opacity="0.2" d="M758.746 238.225C756.952 240.199 748.216 242.518 748.216 242.518C748.216 242.518 749.911 233.637 751.716 231.742C752.58 230.815 753.779 230.267 755.049 230.218C756.319 230.17 757.556 230.626 758.489 231.486C759.421 232.346 759.972 233.539 760.02 234.802C760.068 236.066 759.61 237.298 758.746 238.225V238.225Z" fill="#6C63FF"/>
<path id="Vector_103" opacity="0.2" d="M737.239 204.4C739.45 205.851 748.493 206.088 748.493 206.088C748.493 206.088 744.735 197.898 742.544 196.437C742.018 196.092 741.43 195.853 740.811 195.734C740.193 195.615 739.557 195.619 738.94 195.744C738.323 195.87 737.737 196.115 737.216 196.466C736.694 196.817 736.247 197.266 735.9 197.789C735.553 198.312 735.313 198.898 735.193 199.513C735.074 200.128 735.077 200.761 735.203 201.375C735.329 201.989 735.576 202.572 735.928 203.091C736.281 203.61 736.733 204.055 737.258 204.4H737.239Z" fill="#6C63FF"/>
<path id="Vector_104" opacity="0.2" d="M736.425 227.016C738.974 227.746 747.67 225.27 747.67 225.27C747.67 225.27 741.621 218.57 739.073 217.839C737.851 217.49 736.54 217.638 735.428 218.25C734.316 218.863 733.494 219.89 733.143 221.106C732.792 222.321 732.941 223.626 733.556 224.732C734.172 225.839 735.204 226.657 736.425 227.006V227.016Z" fill="#6C63FF"/>
<path id="Vector_105" opacity="0.2" d="M738.666 249.099C741.046 250.244 750.05 249.277 750.05 249.277C750.05 249.277 745.221 241.659 742.841 240.514C742.274 240.242 741.658 240.083 741.03 240.047C740.401 240.011 739.771 240.098 739.176 240.304C738.581 240.511 738.033 240.831 737.563 241.248C737.093 241.665 736.709 242.17 736.435 242.735C736.161 243.299 736.001 243.911 735.965 244.537C735.929 245.163 736.017 245.79 736.224 246.382C736.431 246.973 736.754 247.519 737.173 247.987C737.592 248.455 738.099 248.836 738.666 249.109V249.099Z" fill="#6C63FF"/>
<path id="Vector_106" opacity="0.1" d="M794.95 77.4185L793.205 77.7442C793.528 77.6827 793.814 77.4958 793.999 77.2247C794.184 76.9536 794.253 76.6205 794.191 76.2986C794.129 75.9767 793.942 75.6924 793.669 75.5083C793.397 75.3242 793.062 75.2553 792.739 75.3168L778.608 77.9711C778.285 78.0326 777.999 78.2194 777.814 78.4905C777.629 78.7616 777.56 79.0948 777.622 79.4167C777.683 79.7386 777.871 80.0228 778.144 80.2069C778.416 80.3911 778.751 80.4599 779.074 80.3985L780.82 80.0728C780.659 80.1033 780.507 80.1648 780.371 80.254C780.234 80.3431 780.117 80.458 780.025 80.5923C779.934 80.7265 779.87 80.8774 779.837 81.0363C779.804 81.1952 779.802 81.359 779.833 81.5184C779.864 81.6778 779.925 81.8296 780.015 81.9652C780.104 82.1008 780.22 82.2175 780.355 82.3087C780.49 82.3998 780.641 82.4637 780.801 82.4965C780.961 82.5294 781.125 82.5306 781.286 82.5002L778.846 82.9639C778.523 83.0254 778.237 83.2123 778.052 83.4834C777.867 83.7545 777.798 84.0876 777.86 84.4095C777.921 84.7314 778.109 85.0156 778.382 85.1998C778.654 85.3839 778.989 85.4528 779.312 85.3913L793.443 82.737C793.603 82.7065 793.755 82.645 793.892 82.5559C794.028 82.4667 794.145 82.3518 794.237 82.2175C794.328 82.0833 794.393 81.9324 794.426 81.7735C794.459 81.6146 794.46 81.4508 794.429 81.2914C794.399 81.1321 794.337 80.9802 794.247 80.8446C794.158 80.709 794.042 80.5923 793.907 80.5011C793.772 80.41 793.621 80.3462 793.461 80.3133C793.301 80.2804 793.137 80.2792 792.977 80.3096L795.416 79.8459C795.576 79.8154 795.729 79.7539 795.865 79.6648C796.001 79.5756 796.118 79.4607 796.21 79.3264C796.302 79.1922 796.366 79.0413 796.399 78.8824C796.432 78.7235 796.433 78.5597 796.403 78.4003C796.372 78.241 796.31 78.0891 796.221 77.9535C796.131 77.8179 796.015 77.7012 795.881 77.6101C795.746 77.5189 795.594 77.4551 795.434 77.4222C795.275 77.3893 795.11 77.3881 794.95 77.4185Z" fill="#252223"/>
<path id="Vector_107" opacity="0.1" d="M769.357 101.564L767.611 101.889C767.772 101.859 767.924 101.797 768.06 101.708C768.197 101.619 768.314 101.504 768.406 101.37C768.497 101.236 768.561 101.085 768.594 100.926C768.627 100.767 768.629 100.603 768.598 100.444C768.567 100.284 768.506 100.133 768.416 99.997C768.326 99.8614 768.211 99.7447 768.076 99.6535C767.941 99.5624 767.789 99.4985 767.63 99.4657C767.47 99.4328 767.305 99.4316 767.145 99.462L752.985 102.116C752.662 102.178 752.376 102.365 752.191 102.636C752.006 102.907 751.937 103.24 751.999 103.562C752.06 103.884 752.248 104.168 752.521 104.352C752.793 104.536 753.128 104.605 753.451 104.544L755.196 104.218C755.036 104.248 754.884 104.31 754.747 104.399C754.611 104.488 754.494 104.603 754.402 104.737C754.311 104.872 754.247 105.023 754.214 105.181C754.18 105.34 754.179 105.504 754.21 105.664C754.24 105.823 754.302 105.975 754.392 106.11C754.481 106.246 754.597 106.363 754.732 106.454C754.867 106.545 755.018 106.609 755.178 106.642C755.338 106.675 755.502 106.676 755.663 106.645L753.223 107.109C753.063 107.14 752.91 107.201 752.774 107.29C752.638 107.379 752.521 107.494 752.429 107.629C752.337 107.763 752.273 107.914 752.24 108.073C752.207 108.232 752.206 108.395 752.237 108.555C752.267 108.714 752.329 108.866 752.419 109.002C752.508 109.137 752.624 109.254 752.759 109.345C752.893 109.436 753.045 109.5 753.205 109.533C753.364 109.566 753.529 109.567 753.689 109.536L767.859 106.882C768.019 106.852 768.172 106.79 768.308 106.701C768.445 106.612 768.562 106.497 768.653 106.363C768.745 106.229 768.809 106.078 768.842 105.919C768.875 105.76 768.876 105.596 768.846 105.437C768.815 105.277 768.753 105.125 768.664 104.99C768.574 104.854 768.459 104.738 768.324 104.646C768.189 104.555 768.037 104.491 767.878 104.458C767.718 104.426 767.553 104.424 767.393 104.455L769.833 103.991C769.993 103.961 770.145 103.899 770.282 103.81C770.418 103.721 770.535 103.606 770.627 103.472C770.718 103.337 770.783 103.187 770.816 103.028C770.849 102.869 770.85 102.705 770.819 102.546C770.789 102.386 770.727 102.234 770.637 102.099C770.548 101.963 770.432 101.846 770.297 101.755C770.162 101.664 770.011 101.6 769.851 101.567C769.691 101.535 769.527 101.533 769.367 101.564H769.357Z" fill="#252223"/>
<path id="Vector_108" opacity="0.1" d="M913.903 70.7187L912.158 71.0443C912.318 71.0138 912.47 70.9523 912.607 70.8632C912.743 70.774 912.86 70.6591 912.952 70.5248C913.043 70.3906 913.108 70.2397 913.141 70.0808C913.174 69.9219 913.175 69.7581 913.144 69.5987C913.114 69.4393 913.052 69.2875 912.962 69.1519C912.873 69.0163 912.757 68.8996 912.622 68.8084C912.487 68.7173 912.336 68.6534 912.176 68.6206C912.016 68.5877 911.852 68.5865 911.692 68.6169L897.571 71.3008C897.248 71.3623 896.962 71.5492 896.777 71.8203C896.592 72.0914 896.523 72.4245 896.585 72.7464C896.646 73.0683 896.834 73.3525 897.107 73.5367C897.379 73.7208 897.714 73.7897 898.037 73.7282L899.782 73.4026C899.622 73.433 899.47 73.4945 899.333 73.5837C899.197 73.6728 899.08 73.7878 898.988 73.922C898.897 74.0562 898.832 74.2071 898.799 74.366C898.766 74.5249 898.765 74.6887 898.796 74.8481C898.826 75.0075 898.888 75.1593 898.978 75.2949C899.067 75.4305 899.183 75.5472 899.318 75.6384C899.453 75.7295 899.604 75.7934 899.764 75.8262C899.924 75.8591 900.088 75.8603 900.248 75.8299L897.76 76.2345C897.436 76.2959 897.15 76.4828 896.965 76.7539C896.78 77.025 896.711 77.3581 896.773 77.68C896.835 78.0019 897.022 78.2862 897.295 78.4703C897.567 78.6544 897.902 78.7233 898.226 78.6618L912.356 76.0075C912.516 75.9771 912.669 75.9155 912.805 75.8264C912.941 75.7373 913.059 75.6223 913.15 75.4881C913.242 75.3538 913.306 75.203 913.339 75.0441C913.372 74.8852 913.373 74.7213 913.343 74.5619C913.312 74.4026 913.25 74.2507 913.161 74.1151C913.071 73.9796 912.956 73.8628 912.821 73.7717C912.686 73.6805 912.534 73.6167 912.374 73.5838C912.215 73.5509 912.05 73.5497 911.89 73.5802L914.329 73.1164C914.489 73.0859 914.642 73.0244 914.778 72.9353C914.915 72.8462 915.032 72.7312 915.124 72.597C915.215 72.4627 915.279 72.3118 915.312 72.1529C915.345 71.994 915.347 71.8302 915.316 71.6708C915.285 71.5115 915.223 71.3596 915.134 71.224C915.044 71.0884 914.929 70.9717 914.794 70.8806C914.659 70.7894 914.507 70.7256 914.348 70.6927C914.188 70.6598 914.023 70.6586 913.863 70.6891L913.903 70.7187Z" fill="#252223"/>
<path id="Vector_109" opacity="0.3" d="M727.604 114.314C734.744 112.971 739.44 106.122 738.09 99.0163C736.741 91.9105 729.858 87.2386 722.717 88.5812C715.576 89.9239 710.881 96.7727 712.231 103.879C713.58 110.984 720.463 115.656 727.604 114.314Z" fill="#6C63FF"/>
<path id="Vector_110" opacity="0.05" d="M803.676 169.174C803.676 169.174 810.29 174.986 813.374 180.147C816.458 185.307 815.476 187.054 815.476 187.054" fill="black"/>
</g>
</g>
</g>
</g>
<defs>
<linearGradient id="paint0_linear" x1="844.235" y1="234.058" x2="823.46" y2="123.567" gradientUnits="userSpaceOnUse">
<stop stop-color="#808080" stop-opacity="0.25"/>
<stop offset="0.54" stop-color="#808080" stop-opacity="0.12"/>
<stop offset="1" stop-color="#808080" stop-opacity="0.1"/>
</linearGradient>
<linearGradient id="paint1_linear" x1="59537.7" y1="30642" x2="59537.7" y2="22673.8" gradientUnits="userSpaceOnUse">
<stop stop-color="#808080" stop-opacity="0.25"/>
<stop offset="0.54" stop-color="#808080" stop-opacity="0.12"/>
<stop offset="1" stop-color="#808080" stop-opacity="0.1"/>
</linearGradient>
</defs>
</svg>
